<?xml version="1.0" encoding="UTF-8"?>
<svg id="_Слой_1" data-name="Слой_1" xmlns="http://www.w3.org/2000/svg" xmlns:xlink="http://www.w3.org/1999/xlink" viewBox="0 0 500 500">
  <defs>
    <style>
      .cls-1 {
        fill: url(#_Безымянный_градиент_9-20);
      }

      .cls-2 {
        fill: url(#_Безымянный_градиент_6-19);
      }

      .cls-3 {
        fill: url(#_Безымянный_градиент_9-6);
      }

      .cls-4 {
        fill: url(#_Безымянный_градиент_6-2);
      }

      .cls-5 {
        fill: url(#_Безымянный_градиент_9-12);
      }

      .cls-6 {
        fill: url(#_Безымянный_градиент_6-4);
      }

      .cls-7 {
        fill: url(#_Безымянный_градиент_9-19);
      }

      .cls-8 {
        fill: url(#_Безымянный_градиент_9-18);
      }

      .cls-9 {
        fill: url(#_Безымянный_градиент_6-16);
      }

      .cls-10 {
        fill: url(#_Безымянный_градиент_6-6);
      }

      .cls-11 {
        fill: url(#_Безымянный_градиент_9-21);
      }

      .cls-12 {
        fill: url(#_Безымянный_градиент_6-18);
      }

      .cls-13 {
        fill: url(#_Безымянный_градиент_6-10);
      }

      .cls-14 {
        fill: url(#_Безымянный_градиент_6-12);
      }

      .cls-15 {
        fill: url(#_Безымянный_градиент_9-24);
      }

      .cls-16 {
        fill: url(#_Безымянный_градиент_9-9);
      }

      .cls-17 {
        fill: url(#_Безымянный_градиент_9-15);
      }

      .cls-18 {
        fill: url(#_Безымянный_градиент_6-9);
      }

      .cls-19 {
        fill: url(#_Безымянный_градиент_6-11);
      }

      .cls-20 {
        fill: url(#_Безымянный_градиент_9-13);
      }

      .cls-21 {
        fill: url(#_Безымянный_градиент_6-13);
      }

      .cls-22 {
        fill: url(#_Безымянный_градиент_9-11);
      }

      .cls-23 {
        fill: url(#_Безымянный_градиент_9-3);
      }

      .cls-24 {
        fill: url(#_Безымянный_градиент_6-5);
      }

      .cls-25 {
        fill: url(#_Безымянный_градиент_9-7);
      }

      .cls-26 {
        fill: url(#_Безымянный_градиент_9-17);
      }

      .cls-27 {
        fill: url(#_Безымянный_градиент_6-3);
      }

      .cls-28 {
        fill: url(#_Безымянный_градиент_9);
      }

      .cls-29 {
        fill: url(#_Безымянный_градиент_9-8);
      }

      .cls-30 {
        fill: url(#_Безымянный_градиент_6-14);
      }

      .cls-31 {
        fill: url(#_Безымянный_градиент_9-22);
      }

      .cls-32 {
        fill: url(#_Безымянный_градиент_9-14);
      }

      .cls-33 {
        fill: url(#_Безымянный_градиент_9-26);
      }

      .cls-34 {
        fill: url(#_Безымянный_градиент_9-5);
      }

      .cls-35 {
        fill: url(#_Безымянный_градиент_9-25);
      }

      .cls-36 {
        fill: url(#_Безымянный_градиент_6-8);
      }

      .cls-37 {
        fill: url(#_Безымянный_градиент_6-17);
      }

      .cls-38 {
        fill: url(#_Безымянный_градиент_9-27);
      }

      .cls-39 {
        fill: url(#_Безымянный_градиент_9-2);
      }

      .cls-40 {
        fill: url(#_Безымянный_градиент_6-7);
      }

      .cls-41 {
        fill: url(#_Безымянный_градиент_9-4);
      }

      .cls-42 {
        fill: url(#_Безымянный_градиент_9-10);
      }

      .cls-43 {
        fill: url(#_Безымянный_градиент_9-23);
      }

      .cls-44 {
        fill: url(#_Безымянный_градиент_9-16);
      }

      .cls-45 {
        fill: url(#_Безымянный_градиент_6);
      }

      .cls-46 {
        fill: url(#_Безымянный_градиент_6-15);
      }
    </style>
    <linearGradient id="_Безымянный_градиент_9" data-name="Безымянный градиент 9" x1="140.94" y1="247.6" x2="153.14" y2="247.6" gradientUnits="userSpaceOnUse">
      <stop offset="0" stop-color="#73c7d5"/>
      <stop offset=".99" stop-color="#1c4e9d"/>
    </linearGradient>
    <linearGradient id="_Безымянный_градиент_9-2" data-name="Безымянный градиент 9" x1="127.81" y1="216.92" x2="140.11" y2="216.92" xlink:href="#_Безымянный_градиент_9"/>
    <linearGradient id="_Безымянный_градиент_9-3" data-name="Безымянный градиент 9" x1="104.79" y1="215.86" x2="114.98" y2="215.86" xlink:href="#_Безымянный_градиент_9"/>
    <linearGradient id="_Безымянный_градиент_9-4" data-name="Безымянный градиент 9" x1="163" y1="208.04" x2="172.87" y2="208.04" xlink:href="#_Безымянный_градиент_9"/>
    <linearGradient id="_Безымянный_градиент_9-5" data-name="Безымянный градиент 9" x1="219.6" y1="182.43" x2="229.44" y2="182.43" xlink:href="#_Безымянный_градиент_9"/>
    <linearGradient id="_Безымянный_градиент_9-6" data-name="Безымянный градиент 9" x1="189.4" y1="188.73" x2="199.23" y2="188.73" xlink:href="#_Безымянный_градиент_9"/>
    <linearGradient id="_Безымянный_градиент_9-7" data-name="Безымянный градиент 9" x1="179.24" y1="245.29" x2="188.81" y2="245.29" xlink:href="#_Безымянный_градиент_9"/>
    <linearGradient id="_Безымянный_градиент_9-8" data-name="Безымянный градиент 9" x1="156.64" y1="222.54" x2="164.2" y2="222.54" xlink:href="#_Безымянный_градиент_9"/>
    <linearGradient id="_Безымянный_градиент_9-9" data-name="Безымянный градиент 9" x1="146.62" y1="202.95" x2="154.31" y2="202.95" xlink:href="#_Безымянный_градиент_9"/>
    <linearGradient id="_Безымянный_градиент_9-10" data-name="Безымянный градиент 9" x1="197.29" y1="227.12" x2="203.66" y2="227.12" xlink:href="#_Безымянный_градиент_9"/>
    <linearGradient id="_Безымянный_градиент_6" data-name="Безымянный градиент 6" x1="296.31" y1="275.34" x2="296.31" y2="171.2" gradientUnits="userSpaceOnUse">
      <stop offset=".01" stop-color="#d3d3d3"/>
      <stop offset=".19" stop-color="#fff"/>
      <stop offset=".36" stop-color="#d0d0d0"/>
      <stop offset=".48" stop-color="#a8a7a7"/>
      <stop offset=".66" stop-color="#b0b0b0"/>
      <stop offset=".79" stop-color="#fff"/>
      <stop offset=".88" stop-color="#d0d0d0"/>
      <stop offset=".96" stop-color="#a8a7a7"/>
    </linearGradient>
    <linearGradient id="_Безымянный_градиент_6-2" data-name="Безымянный градиент 6" x1="357.6" y1="275.34" x2="357.6" y2="171.2" xlink:href="#_Безымянный_градиент_6"/>
    <linearGradient id="_Безымянный_градиент_6-3" data-name="Безымянный градиент 6" x1="219.01" y1="275.34" x2="219.01" y2="171.2" xlink:href="#_Безымянный_градиент_6"/>
    <linearGradient id="_Безымянный_градиент_6-4" data-name="Безымянный градиент 6" x1="181.87" y1="275.34" x2="181.87" y2="171.2" xlink:href="#_Безымянный_градиент_6"/>
    <linearGradient id="_Безымянный_градиент_6-5" data-name="Безымянный градиент 6" x1="124.34" y1="275.34" x2="124.34" y2="171.2" xlink:href="#_Безымянный_градиент_6"/>
    <linearGradient id="_Безымянный_градиент_6-6" data-name="Безымянный градиент 6" x1="167.66" y1="275.34" x2="167.66" y2="171.2" xlink:href="#_Безымянный_градиент_6"/>
    <linearGradient id="_Безымянный_градиент_6-7" data-name="Безымянный градиент 6" x1="166.14" y1="275.34" x2="166.14" y2="171.2" xlink:href="#_Безымянный_градиент_6"/>
    <linearGradient id="_Безымянный_градиент_6-8" data-name="Безымянный градиент 6" x1="198.48" y1="275.34" x2="198.48" y2="171.2" xlink:href="#_Безымянный_градиент_6"/>
    <linearGradient id="_Безымянный_градиент_6-9" data-name="Безымянный градиент 6" x1="203.73" y1="275.34" x2="203.73" y2="171.2" xlink:href="#_Безымянный_градиент_6"/>
    <linearGradient id="_Безымянный_градиент_6-10" data-name="Безымянный градиент 6" x1="171.19" y1="275.34" x2="171.19" y2="171.2" xlink:href="#_Безымянный_градиент_6"/>
    <linearGradient id="_Безымянный_градиент_6-11" data-name="Безымянный градиент 6" x1="90.96" y1="275.34" x2="90.96" y2="171.2" xlink:href="#_Безымянный_градиент_6"/>
    <linearGradient id="_Безымянный_градиент_6-12" data-name="Безымянный градиент 6" x1="142.58" y1="275.34" x2="142.58" y2="171.2" xlink:href="#_Безымянный_градиент_6"/>
    <linearGradient id="_Безымянный_градиент_6-13" data-name="Безымянный градиент 6" x1="121.85" y1="275.34" x2="121.85" y2="171.2" xlink:href="#_Безымянный_градиент_6"/>
    <linearGradient id="_Безымянный_градиент_6-14" data-name="Безымянный градиент 6" x1="110.27" y1="275.34" x2="110.27" y2="171.2" xlink:href="#_Безымянный_градиент_6"/>
    <linearGradient id="_Безымянный_градиент_6-15" data-name="Безымянный градиент 6" x1="398.73" y1="275.34" x2="398.73" y2="171.2" xlink:href="#_Безымянный_градиент_6"/>
    <linearGradient id="_Безымянный_градиент_6-16" data-name="Безымянный градиент 6" x1="98.62" y1="324.71" x2="98.62" y2="278.31" xlink:href="#_Безымянный_градиент_6"/>
    <linearGradient id="_Безымянный_градиент_6-17" data-name="Безымянный градиент 6" x1="134.23" y1="324.71" x2="134.23" y2="278.31" xlink:href="#_Безымянный_градиент_6"/>
    <linearGradient id="_Безымянный_градиент_6-18" data-name="Безымянный градиент 6" x1="164.95" y1="324.71" x2="164.95" y2="278.31" xlink:href="#_Безымянный_градиент_6"/>
    <linearGradient id="_Безымянный_градиент_6-19" data-name="Безымянный градиент 6" x1="196.91" y1="324.71" x2="196.91" y2="278.31" xlink:href="#_Безымянный_градиент_6"/>
    <linearGradient id="_Безымянный_градиент_9-11" data-name="Безымянный градиент 9" x1="231.56" y1="322.75" x2="231.56" y2="296.76" xlink:href="#_Безымянный_градиент_9"/>
    <linearGradient id="_Безымянный_градиент_9-12" data-name="Безымянный градиент 9" x1="266.21" y1="322.75" x2="266.21" y2="296.76" xlink:href="#_Безымянный_градиент_9"/>
    <linearGradient id="_Безымянный_градиент_9-13" data-name="Безымянный градиент 9" x1="299.6" y1="322.75" x2="299.6" y2="296.76" xlink:href="#_Безымянный_градиент_9"/>
    <linearGradient id="_Безымянный_градиент_9-14" data-name="Безымянный градиент 9" x1="335.48" y1="322.75" x2="335.48" y2="296.76" xlink:href="#_Безымянный_градиент_9"/>
    <linearGradient id="_Безымянный_градиент_9-15" data-name="Безымянный градиент 9" x1="367.8" y1="322.75" x2="367.8" y2="296.76" xlink:href="#_Безымянный_градиент_9"/>
    <linearGradient id="_Безымянный_градиент_9-16" data-name="Безымянный градиент 9" x1="402.21" y1="322.75" x2="402.21" y2="296.76" xlink:href="#_Безымянный_градиент_9"/>
    <linearGradient id="_Безымянный_градиент_9-17" data-name="Безымянный градиент 9" x1="219.6" y1="267.24" x2="384.37" y2="267.24" xlink:href="#_Безымянный_градиент_9"/>
    <linearGradient id="_Безымянный_градиент_9-18" data-name="Безымянный градиент 9" x1="88.83" y1="284.29" x2="88.83" y2="267.08" xlink:href="#_Безымянный_градиент_9"/>
    <linearGradient id="_Безымянный_градиент_9-19" data-name="Безымянный градиент 9" x1="101.09" y1="284.29" x2="101.09" y2="267.08" xlink:href="#_Безымянный_градиент_9"/>
    <linearGradient id="_Безымянный_градиент_9-20" data-name="Безымянный градиент 9" x1="112.76" y1="284.29" x2="112.76" y2="267.08" xlink:href="#_Безымянный_градиент_9"/>
    <linearGradient id="_Безымянный_градиент_9-21" data-name="Безымянный градиент 9" x1="125.71" y1="284.29" x2="125.71" y2="267.08" xlink:href="#_Безымянный_градиент_9"/>
    <linearGradient id="_Безымянный_градиент_9-22" data-name="Безымянный градиент 9" x1="139.28" y1="284.29" x2="139.28" y2="267.08" xlink:href="#_Безымянный_градиент_9"/>
    <linearGradient id="_Безымянный_градиент_9-23" data-name="Безымянный градиент 9" x1="152.29" y1="284.29" x2="152.29" y2="267.08" xlink:href="#_Безымянный_градиент_9"/>
    <linearGradient id="_Безымянный_градиент_9-24" data-name="Безымянный градиент 9" x1="165.91" y1="284.29" x2="165.91" y2="267.08" xlink:href="#_Безымянный_градиент_9"/>
    <linearGradient id="_Безымянный_градиент_9-25" data-name="Безымянный градиент 9" x1="179.05" y1="284.29" x2="179.05" y2="267.08" xlink:href="#_Безымянный_градиент_9"/>
    <linearGradient id="_Безымянный_градиент_9-26" data-name="Безымянный градиент 9" x1="194.26" y1="284.29" x2="194.26" y2="267.08" xlink:href="#_Безымянный_градиент_9"/>
    <linearGradient id="_Безымянный_градиент_9-27" data-name="Безымянный градиент 9" x1="209.65" y1="284.29" x2="209.65" y2="267.08" xlink:href="#_Безымянный_градиент_9"/>
  </defs>
  <g>
    <path class="cls-28" d="M153.14,247.77q0,6.08-6.1,6.08t-6.09-6.05q0-6.43,6.43-6.45,5.76-.01,5.76,6.42Z"/>
    <path class="cls-39" d="M127.81,216.88q0-6.17,6.3-6.18,5.99-.01,6,5.87.01,6.54-6.68,6.56-5.61.01-5.61-6.25Z"/>
    <path class="cls-23" d="M104.79,215.63c.13-5.83-.76-4.86,6.25-4.95,3.94-.05,3.94,0,3.94,5.94q0,4.45-5.96,4.44-4.23,0-4.22-5.43Z"/>
    <path class="cls-41" d="M168.08,203.16c2.35.06,5.08-.93,4.77,3.44-.5,6.87.98,6.3-4.56,6.36-5.28.07-5.31.03-5.28-4,.05-6.7-.57-5.71,5.08-5.81Z"/>
    <path class="cls-34" d="M224.47,177.52q4.97,0,4.97,3.91c0,5.86,0,5.73-6.33,5.92-2.77.08-3.58-.76-3.5-3.52.19-6.3.05-6.3,4.86-6.31Z"/>
    <path class="cls-3" d="M199.22,188.68c-.09,5.33.91,4.89-5.25,4.88-5.15,0-4.55.52-4.55-4.92,0-5.25-.6-4.75,5.1-4.73,5.2.02,4.67-.64,4.7,4.77Z"/>
    <path class="cls-25" d="M179.35,244.54c-.28-2.12-.41-4.39,3.85-4.06,5.54.43,5.62.11,5.56,3.76-.09,6.16,1.04,5.89-4.34,5.89-5.99,0-4.95.26-5.08-5.59Z"/>
    <path class="cls-29" d="M156.85,222.3c-.91-3.76,1.51-3.37,3.95-3.6,3.77-.36,3.19,2.02,3.38,4.32.25,2.93-1.14,3.28-3.66,3.4-3.34.15-4.37-1.11-3.66-4.12Z"/>
    <path class="cls-16" d="M150.84,199.28c2.78-.64,3.41.66,3.47,3.35.06,3.02-.57,4.1-3.91,4.16-3.66.06-3.61-1.68-3.77-4.36-.21-3.49,1.8-3.4,4.21-3.16Z"/>
    <path class="cls-42" d="M200.83,223.97c3.39-.7,2.55,1.76,2.78,3.61.37,2.96-1.52,2.64-3.44,2.79-3.21.26-2.67-1.87-2.85-3.82-.28-2.95,1.49-2.89,3.52-2.59Z"/>
  </g>
  <g>
    <path class="cls-45" d="M294.43,206.53c-13.4-6.33-25.61-13.11-38.9-17.43-5.37-1.75-10.82-3.35-16.52-3.68-2.5-.15-3.01-1.51-2.9-3.74.13-2.58,1.86-1.65,3.09-1.56,14.15,1.03,26.89,6.59,39.6,12.29,6.93,3.11,13.48,7.05,20.71,9.52,1.79.61,3.51,1.14,5.44,1.16,13.47.13,26.98.45,40.27,2.55,8.76,1.38,17.63,1.96,26.31,4.17,10.43,2.66,20.47,6.22,30.18,10.77,2.75,1.29,5.28,3.1,7.83,4.79,3.74,2.5,3.77,2.92.63,6.61,1.98-3.51.51-5.16-2.35-6.34-5.31-2.18-10.12-5.78-16.19-5.74-1.61.01-3.98-.44-4.58.93-.76,1.75,1.69,2.51,2.82,3.54,2.69,2.45,5.67,4.57,8.37,7.01,2.8,2.53,5.75,3.97,9.61,2.8,1.01-.31,2.17-.14,3.28-.19-.28,1.42-.81,2.73-.75,4,.19,4.17-2.5,4.57-5.55,4.38-3.15-.19-5.03.98-5.54,5.33,2.56-3.16,5.25-4.08,8.39-3.98,1.52.05,2.22.26,1.91,2.03-.35,1.94-.23,3.96-.48,5.86-.17-1.4-.33-2.8-.52-4.37-1.58.23-2.19,1.14-2.66,2.27-.42,1.01-.91,1.99-1.4,2.97-.86,1.75-3.31,3.85-2.5,5.01,1.24,1.77,4.03.06,6.16.28.32.03.65-.1.98-.14.93-.1,2.56-.67,2.51.44-.05,1.15.05,3.23-1.87,3.55-6.63,1.12-13.28,2.1-19.92,3.19-1.9.31-1.57-.8-1.46-1.96.69-7.31.05-14.48-2.01-21.55-7.22-24.84-36.82-25.65-50.37-12.73-7.1,6.77-9.42,15.55-10.32,24.88-.24,2.52-.33,5.08-.24,7.61.06,1.95-.34,2.66-2.55,2.57-21.41-.9-42.84-.8-64.26-.95-25.17-.18-50.34-.37-75.51-.62-.94,0-2.37.87-2.83-.72-.73-2.56,1.12-2.24,2.68-2.24,16.68.02,33.35.02,50.03.03,7.72,0,15.45-.06,23.17.04,2.24.03,2.83-.86,2.79-2.94-.04-2.05-.82-2.58-2.8-2.54-6.14.11-12.28.02-18.42-.03-.59,0-1.69.31-1.69-.46-.02-3.48-2.57-2.24-4.23-2.28-4.52-.12-9.06-.09-13.58-.02-1.65.03-2.7-.1-2.67-2.22.04-2.27,1.56-1.73,2.76-1.74,7.62-.04,15.24-.03,22.86-.02,1.46,0,2.81.25,2.79-2.07-.02-2.2-1.2-2.21-2.74-2.14-1.1.05-2.21.01-3.31,0-.65-.01-1.72.03-1.71-.61.09-4.15-2.98-2.67-4.91-2.69-12.26-.09-24.52-.03-36.78-.04-1.37,0-2.96.45-2.94-1.95.02-2.37,1.58-1.95,2.96-1.95,17.45-.02,34.9-.01,52.35-.03,1.47,0,3.17.48,3.06-2.12-.07-1.67-.44-2.38-2.23-2.31-2.98.12-5.97-.06-8.94.06-1.76.07-2.47-.31-2.5-2.31-.11-8.05-.19-8.05-8.27-8.05-6.3,0-12.59,0-18.89,0-1.5,0-3.08.42-3.09-2.14-.01-2.62,1.72-1.8,2.93-1.8,15.35-.04,30.7-.02,46.06-.06,1.1,0,2.79.81,2.79-1.57,0-1.71-.25-2.54-2.31-2.48-5.52.16-11.05-.07-16.56.11-2.44.08-3.31-.52-3.18-3.08.25-5.07-1.21-5.02,5.22-4.71,11.69.56,23.39.82,35.09,1.15,5.81.16,11.61.88,18.28.41ZM258.95,230.91c-1.56,1.21-5.17-2.06-5.31,2.4-.21,6.83.48,7.74,5.23,7.74,5.38,0,5.13-.01,5.49-6.77.27-4.98-3.22-2.69-5.4-3.37ZM270.56,251.75c.78-3.12-.93-3.31-3.57-3.47-3.85-.24-2.74,2.26-3.03,4.24-.49,3.38,1.85,2.54,3.71,2.78,2.93.38,3.4-1.11,2.9-3.55ZM271.36,223.6c-.18-3.38-.18-3.27-4.28-3.2-3.82.07-2.18,2.95-2.22,4.53-.09,3.53,2.82,1.56,4.36,1.85,2.68.5,2.22-1.57,2.15-3.18ZM399.63,246.72c-.57,1-2.04,1.31-2.02,2.67,0,.17.84.57,1.01.46.98-.7,1.58-1.64,1.01-3.12Z"/>
    <path class="cls-4" d="M335.91,248.83c.17-12.19,9.91-21.65,22.14-21.51,11.65.13,21.32,10.05,21.25,21.77-.07,12-10.1,21.72-22.19,21.52-11.76-.2-21.37-10.07-21.2-21.78ZM371.83,249.53c-1.86.19-3.73.29-5.57.58-2.58.4-2.59,1.75-.94,3.32,1.59,1.51,3.29,2.93,5.02,4.28,3.75,2.93,4.39,2.71,6.05-1.81,2.08-5.67,1.5-6.46-4.55-6.36ZM342.16,248.39c.28-.02.99.08,1.59-.13,2.17-.76,5.72.88,6.4-1.85.59-2.38-2.63-3.71-4.45-5.17-5.14-4.12-5.64-3.91-7.43,2.49-1.23,4.39-.92,4.81,3.9,4.67ZM371.97,248.48c5.81.08,6.19-.37,4.83-4.99-.4-1.36-.98-2.67-1.58-3.96-.57-1.22-1.4-1.48-2.64-.67-2.59,1.69-5.02,3.56-7.22,5.72-1.69,1.66-1.28,2.95,1.05,3.33,2.16.35,4.36.46,5.56.58ZM361.06,256.74c.56,3.23,1.28,6.43,2.42,9.52.3.81.76,1.49,1.65,1.17,2.82-1.04,5.28-2.67,7.17-5.03.59-.74.16-1.46-.5-1.98-2.57-2.06-5.25-3.97-8.21-5.4-1.5-.73-2.57-.18-2.53,1.72ZM357.08,269c5.77.16,6.13-.32,4.16-5.8-.59-1.65-1.3-3.25-1.95-4.87-.38-.93-.8-1.95-1.91-2.04-1.2-.09-1.61,1-1.99,1.9-.9,2.11-1.83,4.22-2.58,6.39-1.28,3.7-1.06,3.96,2.96,4.32.44.04.87.07,1.31.1ZM361.36,240.45c0,2.64.73,3.44,2.62,2.4,1.15-.63,2.35-1.23,3.39-2.02,1.86-1.44,5.42-2.26,5.09-4.56-.4-2.75-3.82-3.91-6.31-5.32-1.28-.72-2.08-.43-2.46.95-.85,3.06-1.67,6.13-2.32,8.54ZM358.58,229.01c-1.37,0-1.93-.02-2.48,0-4.13.19-4.53.72-3.13,4.49.76,2.06,1.69,4.06,2.57,6.07.4.9.78,1.95,2.01,1.87,1.03-.07,1.42-.99,1.74-1.8,1.01-2.55,1.91-5.15,2.96-7.69.81-1.97-.12-2.63-1.86-2.81-.87-.09-1.75-.13-1.81-.13ZM353.54,257.59c.25-2.71-.66-3.48-2.65-2.61-1.19.52-2.38,1.18-3.38,2-1.8,1.46-5.38,2.11-5.05,4.47.35,2.56,3.51,3.94,5.91,5.29.1.05.18.13.28.18,1.22.61,2.15.36,2.55-1,.86-2.94,1.67-5.89,2.36-8.32ZM341.76,249.33c-4.51.02-4.77.32-3.52,4.7.42,1.47,1.04,2.89,1.65,4.29.57,1.32,1.49,1.46,2.59.56,2.39-1.94,4.87-3.77,7.15-5.83,1.57-1.42,1.01-2.55-1.01-2.86-2.28-.35-4.57-.58-6.86-.87ZM353.59,240.77c-.24-1.07-.47-2.49-.9-3.84-.67-2.16-.6-5.67-2.54-6.03-2.75-.5-4.95,2.27-7.04,4.19-.08.07-.14.17-.22.24-1,1-.95,1.89.27,2.66,2.59,1.63,5.12,3.36,7.78,4.87,1.72.97,2.69.22,2.65-2.1Z"/>
    <path class="cls-27" d="M219.07,206.72q-6.37.02-6.36-6.27t6.4-6.33q6.19,0,6.18,6.13c0,.11,0,.22,0,.33q0,6.11-6.23,6.13Z"/>
    <path class="cls-6" d="M175.59,224.55q0-6.51,6.58-6.51,5.96,0,5.99,6.09.03,6.49-6.52,6.49-6.05,0-6.05-6.07Z"/>
    <path class="cls-24" d="M124.24,229.25c5.36,0,5.41,0,5.34,6.35-.05,4.98.85,4.03-6.33,4.11-4.06.04-3.76-.01-4.15-7.01-.29-5.13,3.2-2.97,5.14-3.44Z"/>
    <path class="cls-10" d="M167.64,198.59q-4.96,0-4.96-6.39c0-3.59,0-3.63,6.38-3.56,4.23.04,3.53-.77,3.55,5.82.02,4.92.41,4.05-4.97,4.13Z"/>
    <path class="cls-40" d="M171.15,238.61c0,5.08,0,5.11-3.98,5.08-6.68-.06-5.97.8-6.01-3.75-.07-6.16-.02-6.16,3.85-6.16q6.13,0,6.14,4.83Z"/>
    <path class="cls-36" d="M198.81,204.55c4.63,0,4.66,0,4.62,6.03-.01,1.91.85,4.16-2.83,4-7.13-.31-7.14-.09-7.14-4.05q0-5.97,5.35-5.98Z"/>
    <path class="cls-18" d="M208.6,248.89q0,4.59-5.45,4.59-4.3,0-4.3-4.16,0-5.54,5.82-5.54,3.93,0,3.93,5.11Z"/>
    <path class="cls-13" d="M174.81,252.98c1.05,3.59-1.28,3.26-3.77,3.53-3.78.41-3.4-1.69-3.67-4.28-.39-3.78,1.79-3.19,4.17-3.45,3.65-.4,3.74,1.56,3.28,4.2Z"/>
    <path class="cls-19" d="M90.95,214.08c-2.57.58-3.3-.38-3.38-3.05-.09-3.09,1.08-3.46,3.77-3.57,3.16-.14,2.79,1.58,2.98,3.64.26,2.79-.88,3.55-3.37,2.99Z"/>
    <path class="cls-14" d="M142.68,227.22c2.76-.71,3.17.66,3.22,3.11.05,2.6-.5,3.52-3.35,3.53-2.99,0-3.22-1.21-3.29-3.66-.08-2.75.92-3.54,3.43-2.97Z"/>
    <path class="cls-21" d="M125,203.11c.86,3.25-.93,3.32-3.36,3.48-2.92.19-2.98-1.18-3.17-3.44-.25-3.05,1.15-3.22,3.59-3.27,2.67-.06,3.73.69,2.93,3.23Z"/>
    <path class="cls-30" d="M107.04,228.75c-.7-2.85.69-3.33,3.31-3.43,3.05-.12,3.15,1.26,3.3,3.67.18,2.98-1.28,2.99-3.5,3.08-2.56.1-3.75-.6-3.11-3.32Z"/>
    <path class="cls-46" d="M399.63,246.72c.57,1.48-.03,2.42-1.01,3.12-.16.12-1-.28-1.01-.46-.03-1.36,1.45-1.66,2.02-2.67Z"/>
  </g>
  <g>
    <path class="cls-9" d="M83.43,320.05l4.96-18.83c1.35-5.13,5.72-7.7,13.14-7.71h10.66c.49,0,.89.18,1.22.55.32.37.48.8.48,1.29v24.71c0,.51-.18.95-.55,1.3-.37.35-.81.52-1.33.52h-3.72c-.54,0-.99-.17-1.34-.52-.35-.35-.52-.79-.52-1.34v-4.98h-14.01l-1.34,5c-.13.54-.43.98-.9,1.33-.46.35-.95.52-1.47.52h-3.92c-.52,0-.91-.18-1.17-.53-.19-.24-.28-.51-.28-.81.01-.14.04-.3.08-.47ZM93.92,309.43h12.52v-10.33h-5.62c-1.26,0-2.36.36-3.3,1.08-.94.72-1.57,1.69-1.9,2.91l-1.69,6.34Z"/>
    <path class="cls-37" d="M119.55,295.38c0-.51.18-.96.55-1.33.37-.37.81-.55,1.33-.55h16.08c1.81,0,3.45.25,4.94.74,1.48.5,2.75,1.37,3.79,2.62,1.04,1.25,1.56,2.79,1.56,4.63,0,2.03-.89,3.77-2.67,5.22,2.55,1.35,3.81,3.55,3.8,6.6,0,2.72-1.01,4.82-3.04,6.31-2.02,1.49-4.51,2.24-7.45,2.24h-17.01c-.51,0-.96-.18-1.33-.54-.37-.36-.55-.8-.55-1.32v-24.63ZM127,304.38h10.58c.83,0,1.5-.24,2-.73.5-.48.75-1.16.75-2.03s-.25-1.55-.75-2.04c-.5-.49-1.17-.74-2-.74h-10.58v5.54ZM127,316.53h11.31c1.03,0,1.81-.3,2.34-.91.53-.61.8-1.44.8-2.49s-.27-1.89-.81-2.49c-.54-.61-1.32-.91-2.33-.91h-11.31v6.8Z"/>
    <path class="cls-12" d="M150.52,297.24v-1.86c0-.54.18-.99.53-1.35.36-.36.8-.53,1.35-.53h25.1c.54,0,.99.18,1.35.53.36.36.53.8.53,1.35v1.86c0,.54-.18.99-.53,1.34-.36.35-.8.52-1.35.52h-8.82v20.95c0,.51-.18.95-.54,1.3-.36.35-.8.52-1.32.52h-3.74c-.51,0-.95-.17-1.32-.52-.36-.35-.54-.78-.54-1.3v-20.95h-8.82c-.54,0-.99-.17-1.35-.52-.36-.35-.53-.79-.53-1.34Z"/>
    <path class="cls-2" d="M185.04,318.94c-2.7-2.36-4.06-6.11-4.06-11.24s1.35-8.88,4.06-11.24c2.7-2.36,6.66-3.54,11.88-3.54s9.17,1.18,11.87,3.54c2.7,2.36,4.05,6.11,4.05,11.24s-1.35,8.88-4.05,11.24c-2.7,2.36-6.65,3.54-11.87,3.54s-9.18-1.18-11.88-3.54ZM190.45,300.63c-1.34,1.58-2.01,3.94-2.01,7.08s.67,5.49,2.01,7.07c1.34,1.58,3.49,2.37,6.47,2.37s5.13-.79,6.46-2.37c1.33-1.58,2-3.93,2-7.07s-.67-5.49-2-7.08c-1.33-1.58-3.48-2.38-6.46-2.38s-5.13.79-6.47,2.38Z"/>
    <g>
      <path class="cls-22" d="M216.87,320.01v-24.63c0-.51.18-.96.53-1.33.36-.37.79-.55,1.31-.55h25.68c.51,0,.95.18,1.32.55.36.37.54.81.54,1.33v24.63c0,.51-.19.95-.56,1.32-.38.36-.82.54-1.34.54h-3.68c-.51,0-.96-.18-1.33-.54-.37-.36-.55-.8-.55-1.32v-20.91h-14.46v20.91c0,.51-.18.95-.54,1.32-.36.36-.8.54-1.32.54h-3.72c-.51,0-.96-.18-1.33-.54-.37-.36-.55-.8-.55-1.32Z"/>
      <path class="cls-5" d="M254.34,318.94c-2.7-2.36-4.06-6.11-4.06-11.24s1.35-8.88,4.06-11.24c2.7-2.36,6.66-3.54,11.88-3.54s9.17,1.18,11.87,3.54c2.7,2.36,4.05,6.11,4.05,11.24s-1.35,8.88-4.05,11.24c-2.7,2.36-6.65,3.54-11.87,3.54s-9.18-1.18-11.88-3.54ZM259.75,300.63c-1.34,1.58-2.01,3.94-2.01,7.08s.67,5.49,2.01,7.07c1.34,1.58,3.49,2.37,6.47,2.37s5.13-.79,6.46-2.37c1.33-1.58,2-3.93,2-7.07s-.67-5.49-2-7.08c-1.33-1.58-3.48-2.38-6.46-2.38s-5.13.79-6.47,2.38Z"/>
      <path class="cls-20" d="M283.36,320.01v-1.9c0-.51.18-.95.54-1.31.36-.36.8-.53,1.31-.53h1.53l3.68-14.97c1.27-5.18,5.56-7.78,12.87-7.79h10.69c.51,0,.95.18,1.32.53.36.36.54.79.54,1.31v24.71c0,.51-.18.95-.54,1.3-.36.35-.8.52-1.32.52h-28.76c-.51,0-.95-.18-1.32-.54-.36-.36-.54-.8-.54-1.32ZM294.42,316.27h13.96v-17.17h-5.88c-1.23,0-2.26.34-3.08,1.03-.82.69-1.38,1.65-1.68,2.88l-3.32,13.26Z"/>
      <path class="cls-32" d="M321.48,320.05v-24.67c0-.54.18-.99.53-1.35s.8-.53,1.35-.53h22.27c.51,0,.95.18,1.32.55.36.37.54.81.54,1.33v1.86c0,.51-.17.95-.52,1.32-.35.36-.78.54-1.3.54h-16.74v4.77h9.77c3.22,0,5.82.76,7.8,2.27,1.98,1.52,2.98,3.76,2.98,6.74s-1,5.22-2.99,6.73c-1.99,1.51-4.59,2.26-7.79,2.26h-15.45c-.51,0-.94-.17-1.28-.52-.34-.35-.5-.78-.5-1.3ZM328.93,316.27h9.77c2.22,0,3.32-1.13,3.32-3.4s-1.11-3.4-3.32-3.4h-9.77v6.8Z"/>
      <path class="cls-17" d="M355.93,318.94c-2.7-2.36-4.06-6.11-4.06-11.24s1.35-8.88,4.06-11.24c2.7-2.36,6.66-3.54,11.88-3.54s9.17,1.18,11.87,3.54c2.7,2.36,4.05,6.11,4.05,11.24s-1.35,8.88-4.05,11.24c-2.7,2.36-6.65,3.54-11.87,3.54s-9.18-1.18-11.88-3.54ZM361.34,300.63c-1.34,1.58-2.01,3.94-2.01,7.08s.67,5.49,2.01,7.07c1.34,1.58,3.49,2.37,6.47,2.37s5.13-.79,6.46-2.37c1.33-1.58,2-3.93,2-7.07s-.67-5.49-2-7.08c-1.33-1.58-3.48-2.38-6.46-2.38s-5.13.79-6.47,2.38Z"/>
      <path class="cls-44" d="M387.76,320.01v-24.63c0-.51.18-.96.53-1.33.36-.37.79-.55,1.31-.55h15.09c7.97,0,11.95,3.68,11.96,11.03,0,7.35-3.98,11.03-11.96,11.03h-9.48v4.45c0,.51-.18.95-.54,1.32-.36.36-.8.54-1.32.54h-3.72c-.51,0-.96-.18-1.33-.54-.37-.36-.55-.8-.55-1.32ZM395.22,309.96h7.22c2.22,0,3.9-.37,5.04-1.12,1.15-.74,1.72-2.18,1.72-4.31s-.57-3.57-1.72-4.31c-1.15-.74-2.83-1.12-5.04-1.12h-7.22v10.86Z"/>
    </g>
  </g>
  <path class="cls-26" d="M384.37,255.04c-.97,10.3-11.7,21.2-22.3,23.48-3.42.74-6.85.95-10.33.91-39.01-.44-78.03-.87-117.04-1.28-5.03-.05-10.06,0-15.09,0,0-.36,0-.72,0-1.08,10.99,0,21.99,0,32.98,0,27.53-.01,55.06.24,82.58-.25,5.74-.1,11.26.88,16.89,1,15.32.34,26.25-7.15,31.64-21.47.17-.46.45-.87.68-1.31Z"/>
  <g>
    <path class="cls-8" d="M83.35,283.02v-9.66c0-.21.07-.39.21-.53s.32-.21.53-.21h8.73c.2,0,.37.07.52.22s.21.32.21.52v.73c0,.2-.07.37-.21.52s-.31.21-.51.21h-6.56v1.87h3.83c1.26,0,2.28.3,3.06.89.78.59,1.17,1.47,1.17,2.64s-.39,2.04-1.17,2.64-1.8.89-3.05.89h-6.05c-.2,0-.37-.07-.5-.21s-.2-.31-.2-.51ZM86.27,281.54h3.83c.87,0,1.3-.44,1.3-1.33s-.43-1.33-1.3-1.33h-3.83v2.67Z"/>
    <path class="cls-7" d="M95.89,282.99v-9.65c0-.2.07-.37.22-.51s.32-.21.52-.21h8.94c.2,0,.37.07.52.22s.21.32.21.52v.73c0,.2-.07.37-.21.52s-.31.21-.52.21h-6.75v2.25h5.81c.2,0,.37.07.52.21.14.14.21.31.21.52v.73c0,.2-.07.37-.21.52-.14.14-.31.21-.52.21h-5.81v2.29h6.74c.2,0,.37.07.51.21s.21.31.21.51v.74c0,.2-.07.37-.22.52s-.32.21-.52.21h-8.9c-.2,0-.37-.07-.52-.21s-.22-.32-.22-.53Z"/>
    <path class="cls-1" d="M107,280.69c0-.3.09-.52.27-.65.18-.13.36-.2.53-.2h.91c.48,0,.85.29,1.12.86.13.27.35.49.65.66.3.16.64.25,1.02.25h2.43c.56,0,.98-.09,1.26-.27.28-.18.42-.49.42-.92s-.14-.74-.42-.92c-.28-.18-.7-.27-1.26-.27h-2c-.2,0-.37-.07-.52-.21s-.21-.31-.21-.52v-.64c0-.19.07-.36.21-.51s.3-.22.49-.22h1.74c.63,0,1.08-.09,1.38-.28s.44-.49.44-.91-.15-.72-.44-.91-.75-.28-1.38-.28h-1.88c-.84,0-1.42.32-1.74.95-.23.49-.58.73-1.05.73h-.92c-.09,0-.19-.02-.3-.05s-.21-.13-.33-.27-.17-.32-.17-.53c0-.88.44-1.6,1.33-2.17s1.85-.85,2.89-.85h2.38c3.01,0,4.51,1.13,4.51,3.39,0,.94-.36,1.68-1.07,2.22.82.51,1.22,1.25,1.22,2.24,0,1.19-.37,2.06-1.12,2.59-.75.53-1.82.8-3.21.8h-2.97c-1.05,0-2.02-.29-2.9-.87s-1.33-1.32-1.33-2.23Z"/>
    <path class="cls-11" d="M121.06,282.58c-1.06-.92-1.59-2.39-1.59-4.41s.53-3.48,1.59-4.41c1.06-.92,2.61-1.39,4.65-1.39s3.59.46,4.65,1.39c1.06.93,1.58,2.39,1.58,4.41s-.53,3.48-1.58,4.41-2.61,1.39-4.65,1.39-3.59-.46-4.65-1.39ZM123.18,275.41c-.52.62-.79,1.54-.79,2.77s.26,2.15.79,2.77c.52.62,1.37.93,2.53.93s2.01-.31,2.53-.93c.52-.62.78-1.54.78-2.77s-.26-2.15-.78-2.77c-.52-.62-1.37-.93-2.53-.93s-2.01.31-2.53.93Z"/>
    <path class="cls-31" d="M133.53,283v-9.65c0-.2.07-.37.21-.52s.31-.22.51-.22h10.06c.2,0,.37.07.52.22s.21.32.21.52v9.65c0,.2-.07.37-.22.52s-.32.21-.52.21h-1.44c-.2,0-.37-.07-.52-.21s-.22-.31-.22-.52v-8.19h-5.67v8.19c0,.2-.07.37-.21.52s-.31.21-.52.21h-1.46c-.2,0-.37-.07-.52-.21s-.22-.31-.22-.52Z"/>
    <path class="cls-43" d="M146.34,283.02l1.95-7.38c.53-2.01,2.24-3.02,5.15-3.02h4.18c.19,0,.35.07.48.22s.19.31.19.5v9.68c0,.2-.07.37-.22.51s-.32.21-.52.21h-1.46c-.21,0-.39-.07-.52-.21s-.21-.31-.21-.52v-1.95h-5.49l-.52,1.96c-.05.21-.17.38-.35.52-.18.14-.37.2-.58.2h-1.54c-.2,0-.36-.07-.46-.21-.07-.09-.11-.2-.11-.32,0-.06.02-.12.03-.19ZM150.45,278.86h4.9v-4.05h-2.2c-.49,0-.93.14-1.29.42-.37.28-.62.66-.75,1.14l-.66,2.48Z"/>
    <path class="cls-15" d="M161.3,282.42c-.96-.92-1.44-2.33-1.44-4.24s.48-3.33,1.45-4.24c.97-.92,2.41-1.38,4.35-1.38h1.74c1.18,0,2.23.3,3.14.91.91.61,1.36,1.44,1.36,2.5,0,.3-.09.52-.28.66s-.37.2-.54.2h-.95c-.49,0-.87-.28-1.14-.85-.38-.82-1.02-1.22-1.91-1.22h-1.38c-1.13,0-1.9.24-2.3.73-.4.49-.6,1.38-.6,2.69s.2,2.21.6,2.7c.4.49,1.17.73,2.3.73h1.54c.89,0,1.52-.41,1.9-1.22.26-.57.64-.85,1.12-.85h.92c.09,0,.19.02.3.06s.21.13.33.27.17.32.17.53c0,1.06-.45,1.9-1.35,2.5s-1.94.91-3.11.91h-1.89c-1.92,0-3.35-.46-4.31-1.38Z"/>
    <path class="cls-35" d="M173.46,283v-9.65c0-.2.07-.37.22-.52s.32-.22.53-.22h1.44c.2,0,.37.07.52.22s.21.32.21.52v3.49h5.33v-3.49c0-.2.07-.37.22-.52s.32-.22.52-.22h1.44c.21,0,.39.07.53.22s.21.32.21.52v9.65c0,.2-.07.37-.22.52s-.32.21-.52.21h-1.44c-.2,0-.37-.07-.52-.21s-.22-.31-.22-.51v-3.98h-5.33v3.98c0,.2-.07.37-.21.51s-.31.21-.52.21h-1.44c-.2,0-.38-.07-.53-.21s-.22-.31-.22-.52Z"/>
    <path class="cls-33" d="M186.85,282.99v-9.63c0-.21.07-.39.21-.53s.32-.21.53-.21h1.46c.2,0,.37.07.52.22.14.14.21.32.21.52v3.04h3.19c1.22,0,2.23.32,3.03.97.8.65,1.2,1.55,1.2,2.7s-.4,2.05-1.2,2.7-1.81.97-3.02.97h-5.42c-.19,0-.36-.07-.49-.22s-.21-.32-.21-.52ZM189.77,281.54h3.19c.87,0,1.3-.49,1.3-1.48s-.43-1.48-1.3-1.48h-3.19v2.95ZM198.74,283.02v-9.66c0-.2.07-.37.21-.52.14-.14.31-.22.51-.22h1.46c.21,0,.38.07.53.22.14.14.21.32.21.52v9.65c0,.2-.07.37-.22.52-.15.14-.32.21-.52.21h-1.46c-.2,0-.37-.07-.51-.21-.14-.14-.21-.31-.21-.51Z"/>
    <path class="cls-38" d="M203.91,283v-9.65c0-.21.07-.39.22-.53s.33-.21.54-.21h1.41c.21,0,.39.07.53.21s.22.31.22.51v7.76l4.45-7.74c.12-.2.28-.37.49-.52.21-.14.4-.22.58-.22h2.31c.2,0,.38.07.52.22.14.14.21.32.21.52v9.65c0,.2-.07.37-.22.52s-.33.21-.54.21h-1.41c-.21,0-.39-.07-.53-.21s-.22-.31-.22-.52v-7.19l-4.08,7.19c-.12.2-.29.37-.51.52s-.43.21-.63.21h-2.59c-.2,0-.38-.07-.52-.21-.15-.14-.22-.31-.22-.52ZM207.05,269.45c0-.26.14-.4.43-.4h.64c.25,0,.43.13.53.39.15.37.48.55,1,.55s.85-.19.99-.55c.1-.26.28-.39.54-.39h.64c.28,0,.43.13.43.4,0,.71-.24,1.27-.71,1.68s-1.1.62-1.88.62-1.41-.21-1.88-.62-.71-.97-.71-1.68Z"/>
  </g>
</svg>